<?xml version="1.0" encoding="UTF-8"?>
<svg id="Layer_1" data-name="Layer 1" xmlns="http://www.w3.org/2000/svg" viewBox="0 0 394.88 394.88">
  <defs>
    <style>
      .cls-1 {
        stroke: #000;
        stroke-miterlimit: 43.84;
        stroke-width: 10.82px;
      }
    </style>
  </defs>
  <g id="team-collaboration_version-control_github" data-name="team-collaboration/version-control/github">
    <path class="cls-1" d="m313.74,5.41H81.14C39.32,5.41,5.41,39.32,5.41,81.14v232.6c0,41.82,33.91,75.73,75.73,75.73h232.6c41.82,0,75.73-33.91,75.73-75.73V81.14c0-41.82-33.91-75.73-75.73-75.73Zm4.22,280.26c-18.55,25.38-42.51,42.95-71.88,52.7-3.42.64-5.92.19-7.5-1.33-1.58-1.52-2.38-3.42-2.38-5.69v-40.07c0-12.28-3.29-21.27-9.87-26.96,7.22-.76,13.7-1.9,19.46-3.42,5.76-1.52,11.71-3.99,17.85-7.41,6.14-3.42,11.27-7.63,15.39-12.63,4.11-5,7.47-11.65,10.06-19.94,2.59-8.29,3.89-17.82,3.89-28.58,0-15.32-5-28.36-15-39.12,4.69-11.52,4.18-24.43-1.52-38.74-3.55-1.14-8.68-.44-15.39,2.09-6.71,2.53-12.53,5.32-17.47,8.36l-7.22,4.56c-11.78-3.29-23.93-4.94-36.46-4.94s-24.68,1.65-36.46,4.94c-2.03-1.39-4.72-3.1-8.07-5.13-3.36-2.02-8.64-4.46-15.86-7.31-7.22-2.85-12.66-3.7-16.33-2.56-5.57,14.31-6.01,27.22-1.33,38.74-10,10.76-15,23.8-15,39.12,0,10.76,1.3,20.25,3.89,28.48,2.59,8.23,5.92,14.88,9.97,19.94,4.05,5.06,9.15,9.3,15.29,12.72,6.14,3.42,12.09,5.89,17.85,7.41,5.76,1.52,12.25,2.66,19.46,3.42-5.06,4.56-8.16,11.08-9.3,19.56-2.66,1.27-5.51,2.22-8.54,2.85-3.04.63-6.65.95-10.82.95s-8.32-1.36-12.44-4.08c-4.12-2.72-7.63-6.68-10.54-11.87-2.41-4.05-5.48-7.34-9.21-9.87-3.74-2.53-6.87-4.05-9.4-4.56l-3.8-.57c-2.66,0-4.49.28-5.51.85-1.01.57-1.33,1.3-.95,2.19.38.89.95,1.77,1.71,2.66.76.89,1.58,1.65,2.47,2.28l1.33.95c2.78,1.27,5.54,3.67,8.26,7.22,2.72,3.54,4.72,6.77,5.98,9.68l1.9,4.37c1.65,4.81,4.43,8.7,8.35,11.68,3.92,2.98,8.17,4.87,12.72,5.69,4.56.83,8.96,1.27,13.2,1.33,4.24.06,7.75-.15,10.54-.67l4.37-.76c0,4.81.03,10.44.1,16.9.06,6.46.1,9.87.1,10.25,0,2.28-.82,4.18-2.47,5.69-1.65,1.52-4.18,1.96-7.6,1.33-29.37-9.75-53.33-27.31-71.88-52.7-18.55-25.38-27.82-53.96-27.82-85.74,0-26.46,6.52-50.86,19.56-73.2,13.04-22.35,30.73-40.04,53.08-53.08,22.34-13.04,46.75-19.56,73.21-19.56s50.86,6.52,73.21,19.56c22.34,13.04,40.03,30.73,53.08,53.08,13.03,22.34,19.56,46.74,19.56,73.2,0,31.78-9.28,60.36-27.82,85.74Z"/>
  </g>
</svg>