<?xml version="1.0" encoding="UTF-8"?>
<svg id="Layer_1" data-name="Layer 1" xmlns="http://www.w3.org/2000/svg" viewBox="0 0 383.9 383.9">
  <defs>
    <style>
      .cls-1 {
        stroke-width: 0px;
      }
    </style>
  </defs>
  <path class="cls-1" d="m353.2,0H32.8C15.3,0,0,12.6,0,29.9v321.1c0,17.4,15.3,32.9,32.8,32.9h320.3c17.6,0,30.8-15.6,30.8-32.9V29.9c.1-17.3-13.2-29.9-30.7-29.9ZM119,320h-55v-171h55v171Zm-25.6-197h-.4c-17.6,0-29-13.1-29-29.5s11.7-29.5,29.7-29.5,29,12.7,29.4,29.5c0,16.4-11.4,29.5-29.7,29.5Zm226.6,197h-55v-93.5c0-22.4-8-37.7-27.9-37.7-15.2,0-24.2,10.3-28.2,20.3-1.5,3.6-1.9,8.5-1.9,13.5v97.4h-55v-171h55v23.8c8-11.4,20.5-27.8,49.6-27.8,36.1,0,63.4,23.8,63.4,75.1v99.9Z"/>
</svg>