<?xml version="1.0" encoding="UTF-8"?><svg id="Layer_1" xmlns="http://www.w3.org/2000/svg" viewBox="0 0 20.21 20.21"><defs><style>.cls-1{fill:#fff;stroke-width:0px;}</style></defs><path class="cls-1" d="m20.21,8.05s-.03.09-.05.13c-.18.55-.68.86-1.26.78-.53-.08-.94-.54-.94-1.1,0-1.16,0-2.33,0-3.49,0-.16,0-.32,0-.53-.09.08-.14.14-.2.19-3.01,3.01-6.02,6.02-9.03,9.03-.33.34-.72.49-1.18.36-.77-.21-1.07-1.15-.57-1.78.07-.08.14-.16.22-.23,2.99-2.99,5.97-5.97,8.96-8.96.06-.06.13-.11.19-.16-.01-.02-.02-.04-.03-.06-.07,0-.14,0-.21,0-1.25,0-2.5,0-3.75,0-.52,0-.94-.31-1.09-.79-.15-.47.02-.98.43-1.25C11.85.12,12.01.07,12.16,0c2.38,0,4.76,0,7.15,0,.11.05.22.08.32.14.32.16.48.45.59.77v7.15Z"/><path class="cls-1" d="m8.97,20.21c-1.86,0-3.71,0-5.57,0-1.66,0-3.02-1.11-3.34-2.74-.04-.22-.06-.44-.06-.67C0,13.09,0,9.37,0,5.66c0-1.91,1.47-3.4,3.38-3.41,1.48,0,2.96,0,4.44,0,.66,0,1.16.48,1.16,1.11,0,.63-.49,1.13-1.17,1.13-1.45,0-2.89,0-4.34,0-.77,0-1.23.45-1.23,1.22,0,3.67,0,7.34,0,11.01,0,.78.45,1.24,1.24,1.24,3.66,0,7.33,0,10.99,0,.71,0,1.26-.5,1.25-1.26-.03-1.43,0-2.87,0-4.3,0-.65.42-1.12,1.04-1.18.62-.06,1.2.43,1.2,1.06,0,1.59.03,3.17,0,4.76-.03,1.56-1.33,2.94-2.89,3.12-.19.02-.38.04-.57.04-1.84,0-3.68,0-5.53,0Z"/></svg>