<?xml version="1.0" encoding="UTF-8"?>
<svg id="Layer_1" data-name="Layer 1" xmlns="http://www.w3.org/2000/svg" viewBox="0 0 382.81 382.81">
  <defs>
    <style>
      .cls-1 {
        stroke-width: 0px;
      }
    </style>
  </defs>
  <path class="cls-1" d="m328.12,0H54.69C24.61,0,0,24.61,0,54.69v273.43c0,30.08,24.61,54.69,54.69,54.69h273.43c30.08,0,54.69-24.61,54.69-54.69V54.69c0-30.08-24.61-54.69-54.69-54.69ZM54.69,90.23c0-5.47,6.84-9.57,10.94-5.47l108.01,91.6,1.37,1.37-38.28,32.81-82.03-69.73v-50.59Zm191.4,224.22H82.03c-15.04,0-27.34-12.3-27.34-27.34v-110.74l64.26,54.69c10.94,8.2,25.98,8.2,35.55,0l91.6-77.93v161.33Zm82.03-27.34c0,15.04-12.3,27.34-27.34,27.34h-27.34V121.68l43.75-36.91c4.1-4.1,10.94,0,10.94,5.47v196.87Z"/>
</svg>