<?xml version="1.0" encoding="UTF-8"?><svg id="Layer_1" xmlns="http://www.w3.org/2000/svg" viewBox="0 0 41.43 36.86"><defs><style>.cls-1{fill:#fff;stroke-width:0px;}</style></defs><path class="cls-1" d="m20.71,14.74c-2.04,0-3.69,1.65-3.69,3.69s1.65,3.69,3.69,3.69,3.69-1.65,3.69-3.69-1.65-3.69-3.69-3.69Zm-10.34,11.04l-.81-.21C3.48,24.03,0,21.43,0,18.42s3.48-5.61,9.56-7.14l.81-.21.23.81c.62,2.12,1.4,4.18,2.35,6.18l.17.37-.17.37c-.95,1.99-1.74,4.06-2.35,6.18l-.23.81h0Zm-1.19-12.61c-4.62,1.3-7.45,3.28-7.45,5.26s2.83,3.96,7.45,5.26c.56-1.8,1.25-3.55,2.04-5.26-.8-1.71-1.48-3.46-2.04-5.26Zm21.88,12.61l-.23-.81c-.61-2.12-1.4-4.18-2.35-6.17l-.17-.37.17-.37c.95-1.99,1.74-4.06,2.35-6.18l.23-.81.82.21c6.07,1.53,9.55,4.14,9.55,7.15s-3.48,5.61-9.55,7.14l-.82.21Zm-.85-7.35c.83,1.79,1.51,3.56,2.04,5.26,4.62-1.3,7.45-3.28,7.45-5.26s-2.83-3.96-7.45-5.26c-.56,1.8-1.25,3.55-2.04,5.26h0Zm-21.04-5.27l-.23-.81c-1.71-6.02-1.19-10.33,1.42-11.83,2.56-1.48,6.67.27,10.98,4.69l.59.6-.59.6c-1.53,1.59-2.93,3.3-4.18,5.12l-.23.33-.41.03c-2.2.17-4.39.53-6.53,1.05l-.81.21h0ZM12.44,1.71c-.46,0-.87.1-1.22.3-1.72.99-2.02,4.43-.84,9.07,1.84-.41,3.7-.7,5.58-.86,1.08-1.54,2.27-3.01,3.54-4.39-2.69-2.62-5.24-4.11-7.07-4.11h0Zm16.55,35.15s0,0,0,0c-2.46,0-5.62-1.85-8.9-5.22l-.59-.6.59-.6c1.53-1.59,2.93-3.3,4.18-5.12l.23-.33.4-.03c2.2-.17,4.39-.52,6.54-1.05l.81-.21.23.81c1.7,6.01,1.19,10.33-1.42,11.83-.63.36-1.35.54-2.08.53h0Zm-7.07-5.84c2.69,2.62,5.24,4.11,7.07,4.11h0c.46,0,.87-.1,1.22-.3,1.72-.99,2.02-4.43.84-9.07-1.84.41-3.7.7-5.58.86-1.08,1.54-2.26,3.01-3.54,4.39Zm10.34-17.87l-.81-.21c-2.15-.53-4.33-.88-6.54-1.05l-.4-.03-.23-.33c-1.25-1.82-2.65-3.53-4.18-5.12l-.59-.6.59-.6C24.4.78,28.51-.96,31.07.51c2.61,1.51,3.13,5.82,1.42,11.83l-.23.81h0Zm-6.8-2.94c1.97.18,3.84.47,5.58.86,1.18-4.64.88-8.08-.84-9.07-1.71-.99-4.91.52-8.29,3.81,1.28,1.38,2.46,2.85,3.54,4.39Zm-13.02,26.65c-.73.01-1.45-.17-2.08-.53-2.61-1.5-3.13-5.82-1.42-11.83l.23-.81.81.21c1.99.5,4.19.86,6.53,1.05l.41.03.23.33c1.25,1.82,2.65,3.53,4.18,5.12l.59.6-.59.6c-3.28,3.37-6.44,5.22-8.89,5.22h0Zm-2.05-11.09c-1.18,4.64-.88,8.08.84,9.07,1.7.97,4.91-.53,8.29-3.81-1.28-1.39-2.46-2.85-3.54-4.39-1.88-.17-3.74-.45-5.58-.86h0Zm10.33,1.08c-1.42,0-2.88-.06-4.34-.18l-.41-.03-.23-.33c-.83-1.19-1.6-2.41-2.33-3.66-.72-1.25-1.4-2.54-2.01-3.85l-.17-.37.17-.37c.62-1.31,1.29-2.59,2.01-3.85.71-1.24,1.5-2.47,2.33-3.66l.23-.33.41-.03c2.89-.25,5.8-.25,8.69,0l.4.03.23.33c1.66,2.38,3.11,4.89,4.34,7.51l.17.37-.17.37c-1.23,2.62-2.69,5.13-4.34,7.51l-.23.33-.4.03c-1.46.12-2.92.18-4.34.18h0Zm-3.79-1.87c2.55.19,5.03.19,7.59,0,1.43-2.09,2.69-4.28,3.79-6.56-1.09-2.28-2.36-4.47-3.79-6.56-2.52-.19-5.06-.19-7.58,0-1.43,2.08-2.7,4.28-3.79,6.56,1.1,2.28,2.37,4.47,3.79,6.56h0Z"/></svg>