<svg xmlns="http://www.w3.org/2000/svg" xmlns:xlink="http://www.w3.org/1999/xlink" viewBox="0,0,256,256" width="50px" height="50px"><g fill="#ffffff" fill-rule="nonzero" stroke="none" stroke-width="1" stroke-linecap="butt" stroke-linejoin="miter" stroke-miterlimit="10" stroke-dasharray="" stroke-dashoffset="0" font-family="none" font-weight="none" font-size="none" text-anchor="none" style="mix-blend-mode: normal"><g transform="scale(5.12,5.12)"><path d="M25,2c-12.682,0 -23,10.318 -23,23c0,12.682 10.318,23 23,23c12.682,0 23,-10.318 23,-23c0,-12.682 -10.318,-23 -23,-23zM30.64844,9.00195c3.82279,-0.0636 6.97419,1.3278 7.63281,3.91211c0.943,3.697 -2.266,8.11803 -6.375,9.70703c-3.669,1.419 -6.70222,1.19611 -7.94922,0.78711c-1.417,-0.465 -2.24722,-1.40073 -2.44922,-1.92773c-0.079,-0.207 -0.217,-0.55187 0,-0.67187c0.133,-0.074 0.18502,-0.05706 0.54102,0.33594c0.339,0.373 1.6992,1.37594 4.2832,1.08594c6.783,-0.76 10.86717,-6.03119 9.57617,-8.86719c-0.904,-1.985 -6.13111,-2.879 -12.66211,0.375c-7.973,3.973 -8.40466,7.24819 -8.47266,8.49219c-0.187,3.421 4.22242,5.22063 6.60742,7.76563c0.056,0.06 0.11006,0.12064 0.16406,0.18164c0.722,-0.269 1.72155,-0.42027 3.31055,-0.44727c3.858,-0.066 6.03727,2.476 5.94727,4.75c-0.07,1.791 -1.71353,2.52908 -2.01953,2.58008c-0.222,0.038 -0.344,0.04509 -0.375,-0.12891c-0.022,-0.12 0.05836,-0.17589 0.31836,-0.33789c0.26,-0.161 1.03873,-0.69306 1.17773,-1.66406c0.139,-0.97 -0.58778,-3.28966 -4.30078,-3.72266c-1.316,-0.154 -2.35224,-0.04945 -3.24023,0.18555c0.644,1.419 0.76811,4.27437 -0.71289,6.48438c-1.535,2.29 -4.39178,3.68125 -7.17578,2.90625c-0.898,-0.25 -2.25694,-2.10536 -1.08594,-4.69336c1.11,-2.453 5.85105,-4.85288 6.49805,-5.17187v-0.01172c-2.197,-1.891 -7.53997,-4.43984 -8.29297,-8.33984c-0.214,-1.105 0.30373,-3.75201 3.55273,-6.79101c2.733,-2.556 6.53492,-4.51277 10.04492,-5.75977c1.84344,-0.655 3.7194,-0.98476 5.45703,-1.01367zM20.79883,32.07227c-0.065,0.036 -0.12936,0.07147 -0.19336,0.10547l0.00195,0.00781c0.001,-0.001 -2.20623,1.04111 -3.74023,2.66211c-1.426,1.507 -1.82234,3.39838 -1.02734,3.85938c0.737,0.427 2.45359,-0.07892 3.68359,-1.41992c0.403,-0.44 0.73252,-0.91678 0.97852,-1.42578c0.049,-0.102 0.09472,-0.20459 0.13672,-0.30859c0.042,-0.104 0.08219,-0.20941 0.11719,-0.31641c0.318,-0.962 0.35097,-2.02506 0.04297,-3.16406z"></path></g></g></svg>